# AST/ASF file generated using VICON BodyLanguage
# -----------------------------------------------
:version 1.10
:name VICON
:units
  mass 1.0
  length 0.45
  angle deg
:documentation
   .ast/.asf automatically generated from VICON data using
   VICON BodyBuilder and BodyLanguage model FoxedUp or BRILLIANT.MOD
:root
   order TX TY TZ RX RY RZ
   axis XYZ
   position 0 0 0  
   orientation 0 0 0 
:bonedata
  begin
     id 1 
     name lhipjoint
     direction 0.560651 -0.75055 0.34978 
     length 2.44936 
     axis 0 0 0  XYZ
  end
  begin
     id 2 
     name lfemur
     direction 0.34202 -0.939693 0  
     length 7.42139  
     axis 0 0 20  XYZ
    dof rx ry rz
    limits (-160.0 20.0)
           (-70.0 70.0)
           (-60.0 70.0)
  end
  begin
     id 3 
     name ltibia
     direction 0.34202 -0.939693 0   
     length 7.75674   
     axis 0 0 20   XYZ
    dof rx
    limits (-10.0 170.0)
  end
  begin
     id 4 
     name lfoot
     direction 0.0925879 -0.254383 0.962661   
     length 2.38688   
     axis -90 7.62852e-016 20   XYZ
    dof rx rz
    limits (-45.0 90.0)
           (-70.0 20.0)
  end
  begin
     id 5 
     name ltoes
     direction 1.53567e-011 -4.21973e-011 1   
     length 1.19228   
     axis -90 7.62852e-016 20   XYZ
    dof rx
    limits (-90.0 20.0)
  end
  begin
     id 6 
     name rhipjoint
     direction -0.540087 -0.762838 0.355506   
     length 2.4099  
     axis 0 0 0  XYZ 
  end
  begin
     id 7 
     name rfemur
     direction -0.34202 -0.939693 0   
     length 7.70794   
     axis 0 0 -20   XYZ
    dof rx ry rz
    limits (-160.0 20.0)
           (-70.0 70.0)
           (-70.0 60.0)
  end
  begin
     id 8 
     name rtibia
     direction -0.34202 -0.939693 0   
     length 7.66106   
     axis 0 0 -20   XYZ
    dof rx
    limits (-10.0 170.0)
 end
 begin
     id 9 
     name rfoot
     direction -0.0830975 -0.228308 0.970036   
     length 2.4989  
     axis -90 -7.62852e-016 -20   XYZ
    dof rx rz
    limits (-45.0 90.0)
           (-20.0 70.0)
  end
  begin
     id 10 
     name rtoes
     direction -1.53517e-011 -4.21842e-011 1   
     length 1.2498   
     axis -90 -7.62852e-016 -20   XYZ
    dof rx
    limits (-90.0 20.0)
  end
  begin
     id 11 
     name lowerback
     direction 0.0266356 0.99402 -0.105896   
     length 2.1545   
     axis 0 0 0   XYZ
    dof rx ry rz
    limits (-20.0 45.0)
           (-30.0 30.0)
           (-30.0 30.0)
  end
  begin
     id 12 
     name upperback
     direction 0.0130547 0.999192 0.0380027   
     length 2.1434   
     axis 0 0 0   XYZ
    dof rx ry rz
    limits (-20.0 45.0)
           (-30.0 30.0)
           (-30.0 30.0)
  end
  begin
     id 13 
     name thorax
     direction 0.000590299 0.996288 0.0860764   
     length 2.19049   
     axis 0 0 0   XYZ
    dof rx ry rz
    limits (-20.0 45.0)
           (-30.0 30.0)
           (-30.0 30.0)
  end
  begin
     id 14 
     name lowerneck
     direction -0.0432125 0.978219 0.203028   
     length 1.62441   
     axis 0 0 0   XYZ
    dof rx ry rz
    limits (-20.0 45.0)
           (-30.0 30.0)
           (-30.0 30.0)
  end
  begin
     id 15 
     name upperneck
     direction -0.0192309 0.991699 -0.127138   
     length 1.66666   
     axis 0 0 0   XYZ
    dof rx ry rz
    limits (-20.0 45.0)
           (-30.0 30.0)
           (-30.0 30.0)
  end
  begin
     id 16
     name head
     direction -0.00434499 0.997882 -0.0649107  
     length 1.67142  
     axis 0 0 0   XYZ
    dof rx ry rz
    limits (-20.0 45.0)
           (-30.0 30.0)
           (-30.0 30.0)
  end
  begin
     id 17 
     name lclavicle
     direction 0.970351 0.240904 -0.0196058  
     length 4.04862  
     axis 0 0 0   XYZ
    dof ry rz
    limits (-20.0 10.0)
           (0.0 20.0)
  end
  begin
     id 18 
     name lhumerus
     direction 1 -4.4896e-011 -1.40911e-018   
     length 5.58345   
     axis 180 -30 -90   XYZ
    dof rx ry rz
    limits (-60.0 90.0)
           (-90.0 90.0)
           (-90.0 90.0)
  end
  begin
     id 19
     name lradius
     direction 1 -4.48968e-011 5.88912e-028   
     length 3.71087   
     axis 180 -30 -90   XYZ
    dof rx
    limits (-10.0 170.0)
  end
  begin
     id 20
     name lwrist
     direction 1 -4.48955e-011 -8.83775e-028   
     length 1.85544   
     axis 5.52448e-016 90 90   XYZ
    dof ry
    limits (-180.0 0.0)
 end
  begin
     id 21 
     name lhand
     direction 1 -4.49035e-011 -1.76755e-027   
     length 0.562322   
     axis 1.12785e-015 90 90   XYZ
    dof rx rz
    limits (-90.0 90.0)
           (-45.0 45.0)
  end
  begin
     id 22 
     name lfingers
     direction 1 -4.48824e-011 -3.5351e-027   
     length 0.453359   
     axis 2.2557e-015 90 90   XYZ
    dof rx
    limits (0.0 90.0)
  end
  begin
     id 23
     name lthumb
     direction 0.707107 -6.34888e-011 0.707107   
     length 0.650935   
     axis -90 45 2.85299e-015   XYZ
    dof rx rz
    limits (-45.0 45.0)
           (-45.0 45.0)
  end
  begin
     id 24 
     name rclavicle
     direction -0.96165 0.268562 -0.0557131   
     length 4.05446  
     axis 0 0 0   XYZ 
    dof ry rz
    limits (-10.0 20.0)
           (-20.0 0.0)
  end
  begin
     id 25 
     name rhumerus
     direction -1 -4.48957e-011 -3.36329e-027  
     length 5.20357   
     axis 180 30 90   XYZ
    dof rx ry rz
    limits (-90.0 60.0)
           (-90.0 90.0)
           (-90.0 90.0)
  end
  begin
     id 26 
     name rradius
     direction -1 -4.48974e-011 4.51441e-027   
     length 3.64937   
     axis 180 30 90   XYZ
    dof rx
    limits (-10.0 170.0)
  end
  begin
     id 27 
     name rwrist
     direction -1 -4.4896e-011 -8.83775e-028   
     length 1.82468   
     axis 5.52448e-016 -90 -90   XYZ
    dof ry
    limits (-180.0 0.0)
  end
  begin
     id 28
     name rhand
     direction -1 -4.48996e-011 -1.76755e-027   
     length 0.617996   
     axis 1.12785e-015 -90 -90   XYZ
    dof rx rz
    limits (-90.0 90.0)
           (-45.0 45.0)
  end
  begin
     id 29
     name rfingers
     direction -1 -4.48957e-011 -3.5351e-027   
     length 0.498244   
     axis 2.2557e-015 -90 -90   XYZ
    dof rx
    limits (0.0 90.0)
  end
  begin
     id 30
     name rthumb
     direction -0.707107 -6.34931e-011 0.707107   
     length 0.715382   
     axis -90 -45 -2.85299e-015   XYZ
    dof rx rz
    limits (-45.0 45.0)
           (-45.0 45.0)
  end
:hierarchy
  begin
    root lhipjoint rhipjoint lowerback
    lhipjoint lfemur
    lfemur ltibia
    ltibia lfoot
    lfoot ltoes
    rhipjoint rfemur
    rfemur rtibia
    rtibia rfoot
    rfoot rtoes
    lowerback upperback
    upperback thorax
    thorax lowerneck lclavicle rclavicle
    lowerneck upperneck
    upperneck head
    lclavicle lhumerus
    lhumerus lradius
    lradius lwrist
    lwrist lhand lthumb
    lhand lfingers
    rclavicle rhumerus
    rhumerus rradius
    rradius rwrist
    rwrist rhand rthumb
    rhand rfingers
  end

#!OML:ASF H:\ManfredETheater\Project 1\Capture day 2\Session 1\Male1.ASF
:FULLY-SPECIFIED
:DEGREES
126
root 2.11351 18.0722 15.0427 -0.718613 4.69934 -3.60944
lowerback 3.41687 -0.245567 4.36769
upperback -2.86634 0.0866123 3.66248
thorax -4.89467 -0.0367902 1.34357
lowerneck -22.092 -0.352103 -0.931497
upperneck 25.0229 1.35284 -5.07457
head 11.941 -0.170497 -1.52319
rclavicle -2.32578e-014 3.89618e-014
rhumerus -36.5571 -23.3951 -71.2539
rradius 22.242
rwrist 12.6098
rhand -28.5915 -11.5206
rfingers 7.12502
rthumb -1.95714 -41.4914
lclavicle -2.32578e-014 3.89618e-014
lhumerus -40.8431 9.16557 85.1589
lradius 37.571
lwrist -8.70527
lhand -9.28015 10.9811
lfingers 7.12502
lthumb 16.6768 40.2847
rfemur -7.52209 -1.45389 26.1988
rtibia 29.297
rfoot -14.1481 -3.89026
rtoes 7.25883
lfemur -9.59832 -5.77177 -15.339
ltibia 30.0103
lfoot -13.9827 -2.60717
ltoes 5.60688
127
root 2.12548 18.0684 15.0773 -0.590888 4.69693 -3.56457
lowerback 3.36897 -0.224644 4.33703
upperback -2.87879 0.108792 3.63389
thorax -4.87991 -0.0252193 1.32902
lowerneck -22.1811 -0.368184 -0.997184
upperneck 24.9759 1.33884 -5.02358
head 11.9391 -0.176621 -1.49515
rclavicle 1.15295e-014 7.95139e-016
rhumerus -36.7686 -23.7292 -70.9647
rradius 21.8914
rwrist 13.1274
rhand -28.5356 -11.31
rfingers 7.12502
rthumb -1.90323 -41.2813
lclavicle 1.15295e-014 7.95139e-016
lhumerus -40.6994 8.86147 85.3581
lradius 37.9486
lwrist -8.43114
lhand -9.11698 10.9352
lfingers 7.12502
lthumb 16.8338 40.2256
rfemur -7.49526 -1.40679 26.1297
rtibia 29.2592
rfoot -14.3434 -3.96037
rtoes 7.18508
lfemur -9.5954 -5.71777 -15.4141
ltibia 30.0097
lfoot -14.1377 -2.64648
ltoes 5.66886
128
root 2.13749 18.0652 15.1102 -0.463703 4.67587 -3.5521
lowerback 3.31933 -0.241333 4.3054
upperback -2.89867 0.0820336 3.62865
thorax -4.87251 -0.0375726 1.34314
lowerneck -22.2439 -0.329704 -0.991352
upperneck 24.9373 1.38939 -5.01681
head 11.9378 -0.152672 -1.48501
rclavicle -4.77083e-015 -1.51076e-014
rhumerus -37.0274 -24.0392 -70.6921
rradius 21.6734
rwrist 13.7968
rhand -28.3382 -11.2695
rfingers 7.12502
rthumb -1.71258 -41.2424
lclavicle -4.77083e-015 -1.51076e-014
lhumerus -40.5897 8.67329 85.5015
lradius 38.2983
lwrist -8.20319
lhand -9.02861 10.7461
lfingers 7.12502
lthumb 16.9189 40.0292
rfemur -7.48421 -1.29869 26.0972
rtibia 29.2279
rfoot -14.5402 -4.04153
rtoes 7.30865
lfemur -9.59975 -5.66679 -15.4539
ltibia 30.0087
lfoot -14.2839 -2.66825
ltoes 5.7367
129
root 2.14935 18.0615 15.1441 -0.367781 4.69199 -3.50641
lowerback 3.28653 -0.236207 4.27408
upperback -2.92206 0.0844769 3.59211
thorax -4.87799 -0.036226 1.32248
lowerneck -22.2373 -0.335057 -0.998832
upperneck 24.8574 1.3786 -5.0118
head 11.9051 -0.155984 -1.48214
rclavicle 1.17283e-014 -9.54166e-015
rhumerus -37.3135 -24.3066 -70.4536
rradius 21.4638
rwrist 14.3496
rhand -28.2254 -11.4297
rfingers 7.12502
rthumb -1.6036 -41.4034
lclavicle 1.17283e-014 -9.54166e-015
lhumerus -40.4841 8.32467 85.7138
lradius 38.6547
lwrist -7.91293
lhand -9.05082 10.5798
lfingers 7.12502
lthumb 16.8975 39.8646
rfemur -7.43833 -1.2955 26.0167
rtibia 29.2057
rfoot -14.7097 -4.05942
rtoes 7.30546
lfemur -9.56481 -5.57939 -15.5314
ltibia 30.0031
lfoot -14.4173 -2.7461
ltoes 5.78417
130
root 2.16073 18.0582 15.1759 -0.269988 4.65846 -3.49284
lowerback 3.28551 -0.230641 4.25275
upperback -2.948 0.091484 3.57892
thorax -4.9044 -0.0327661 1.32051
lowerneck -22.3033 -0.321227 -1.00296
upperneck 24.8304 1.39832 -5.00489
head 11.908 -0.147021 -1.47564
rclavicle 9.79014e-015 3.65764e-014
rhumerus -37.5748 -24.5404 -70.2188
rradius 21.2892
rwrist 14.8414
rhand -28.0171 -11.4539
rfingers 7.12502
rthumb -1.40247 -41.4291
lclavicle 9.79014e-015 3.65764e-014
lhumerus -40.3508 8.0702 85.9023
lradius 38.7683
lwrist -7.16466
lhand -9.79164 9.09622
lfingers 7.12502
lthumb 16.1843 38.4406
rfemur -7.41079 -1.21911 25.9782
rtibia 29.1882
rfoot -14.8643 -4.09802
rtoes 7.35448
lfemur -9.53706 -5.52505 -15.5732
ltibia 29.9976
lfoot -14.5559 -2.76138
ltoes 5.89646
131
root 2.17212 18.0551 15.2076 -0.205576 4.64696 -3.49243
lowerback 3.2947 -0.251258 4.23197
upperback -2.9682 0.0643746 3.57557
thorax -4.93097 -0.0460027 1.33103
lowerneck -22.2729 -0.291258 -0.939578
upperneck 24.7407 1.43425 -5.07947
head 11.8694 -0.132802 -1.5065
rclavicle -8.10048e-015 7.95139e-015
rhumerus -37.7928 -24.6223 -70.0758
rradius 21.1488
rwrist 15.176
rhand -27.9605 -11.4757
rfingers 7.12502
rthumb -1.34774 -41.4512
lclavicle -8.10048e-015 7.95139e-015
lhumerus -40.2812 7.81614 86.0578
lradius 39.1433
lwrist -6.99387
lhand -9.71141 8.89227
lfingers 7.12502
lthumb 16.2615 38.2303
rfemur -7.34511 -1.19289 25.9501
rtibia 29.1801
rfoot -15.0187 -4.12134
rtoes 7.19431
lfemur -9.47515 -5.46965 -15.604
ltibia 29.987
lfoot -14.6886 -2.79083
ltoes 5.86118
132
root 2.18267 18.0525 15.2364 -0.113005 4.61319 -3.48355
lowerback 3.28664 -0.243709 4.2018
upperback -2.97917 0.0724919 3.56905
thorax -4.93766 -0.0412158 1.34056
lowerneck -22.2841 -0.28381 -0.935893
upperneck 24.6612 1.44339 -5.09238
head 11.8413 -0.128776 -1.50911
rclavicle 2.11706e-014 -3.26007e-014
rhumerus -38.0085 -24.7993 -69.9015
rradius 21.0429
rwrist 15.4943
rhand -27.8275 -11.5016
rfingers 7.12502
rthumb -1.21934 -41.4779
lclavicle 2.11706e-014 -3.26007e-014
lhumerus -40.1799 7.61972 86.1691
lradius 39.5976
lwrist -7.49291
lhand -8.84164 9.77826
lfingers 7.12502
lthumb 17.0989 39.0458
rfemur -7.33317 -1.09675 25.9218
rtibia 29.1745
rfoot -15.1368 -4.17075
rtoes 7.12998
lfemur -9.4539 -5.42744 -15.6382
ltibia 29.9808
lfoot -14.8908 -2.80734
ltoes 5.56521
133
root 2.19464 18.0501 15.2667 -0.0239257 4.608 -3.43441
lowerback 3.25807 -0.247217 4.15458
upperback -2.97777 0.0621258 3.54815
thorax -4.91965 -0.044929 1.34568
lowerneck -22.3476 -0.270939 -0.924637
upperneck 24.6048 1.46446 -5.1196
head 11.8329 -0.121734 -1.51723
rclavicle 1.78906e-015 3.18055e-015
rhumerus -38.1417 -24.8743 -69.8023
rradius 20.9271
rwrist 15.6541
rhand -27.6382 -11.6073
rfingers 7.12502
rthumb -1.0365 -41.5845
lclavicle 1.78906e-015 3.18055e-015
lhumerus -40.0901 7.3162 86.3595
lradius 39.9834
lwrist -7.38625
lhand -8.75929 9.31477
lfingers 7.12502
lthumb 17.1781 38.5754
rfemur -7.30377 -1.12358 25.8252
rtibia 29.1735
rfoot -15.2607 -4.12075
rtoes 7.12626
lfemur -9.42219 -5.39397 -15.7257
ltibia 29.9724
lfoot -15.0127 -2.82752
ltoes 5.65284
134
root 2.20601 18.0482 15.2946 0.0603973 4.57942 -3.44286
lowerback 3.23981 -0.25164 4.14794
upperback -2.97922 0.054487 3.54496
thorax -4.91076 -0.0484791 1.34651
lowerneck -22.3712 -0.245989 -0.8716
upperneck 24.5362 1.4928 -5.17125
head 11.8127 -0.109927 -1.53977
rclavicle 4.96962e-015 -2.78299e-014
rhumerus -38.2893 -25.0216 -69.6825
rradius 20.8463
rwrist 15.9046
rhand -27.6235 -11.5065
rfingers 7.12502
rthumb -1.02226 -41.4838
lclavicle 4.96962e-015 -2.78299e-014
lhumerus -39.9519 7.03895 86.5287
lradius 40.202
lwrist -7.10079
lhand -8.41806 9.84875
lfingers 7.12502
lthumb 17.5065 39.0805
rfemur -7.28925 -1.05513 25.8069
rtibia 29.1791
rfoot -15.3763 -4.14733
rtoes 6.97559
lfemur -9.39529 -5.37422 -15.7479
ltibia 29.9607
lfoot -15.1081 -2.80825
ltoes 5.59844
